<svg width="765" height="665" viewBox="0 0 765 665" fill="none" xmlns="http://www.w3.org/2000/svg">
<circle cx="22.5" cy="22.5" r="22.5" fill="#C4C4C4" fill-opacity="0.54"/>
<circle cx="22.5" cy="146.5" r="22.5" fill="#C4C4C4" fill-opacity="0.54"/>
<circle cx="22.5" cy="270.5" r="22.5" fill="#C4C4C4" fill-opacity="0.54"/>
<circle cx="22.5" cy="518.5" r="22.5" fill="#C4C4C4" fill-opacity="0.54"/>
<circle cx="22.5" cy="394.5" r="22.5" fill="#C4C4C4" fill-opacity="0.54"/>
<circle cx="22.5" cy="642.5" r="22.5" fill="#C4C4C4" fill-opacity="0.54"/>
<circle cx="142.5" cy="22.5" r="22.5" fill="#C4C4C4" fill-opacity="0.54"/>
<circle cx="142.5" cy="146.5" r="22.5" fill="#C4C4C4" fill-opacity="0.54"/>
<circle cx="142.5" cy="270.5" r="22.5" fill="#C4C4C4" fill-opacity="0.54"/>
<circle cx="142.5" cy="518.5" r="22.5" fill="#C4C4C4" fill-opacity="0.54"/>
<circle cx="142.5" cy="394.5" r="22.5" fill="#C4C4C4" fill-opacity="0.54"/>
<circle cx="142.5" cy="642.5" r="22.5" fill="#C4C4C4" fill-opacity="0.54"/>
<circle cx="262.5" cy="22.5" r="22.5" fill="#C4C4C4" fill-opacity="0.54"/>
<circle cx="262.5" cy="146.5" r="22.5" fill="#C4C4C4" fill-opacity="0.54"/>
<circle cx="262.5" cy="270.5" r="22.5" fill="#C4C4C4" fill-opacity="0.54"/>
<circle cx="262.5" cy="518.5" r="22.5" fill="#C4C4C4" fill-opacity="0.54"/>
<circle cx="262.5" cy="394.5" r="22.5" fill="#C4C4C4" fill-opacity="0.54"/>
<circle cx="262.5" cy="642.5" r="22.5" fill="#C4C4C4" fill-opacity="0.54"/>
<circle cx="382.5" cy="22.5" r="22.5" fill="#C4C4C4" fill-opacity="0.54"/>
<circle cx="622.5" cy="22.5" r="22.5" fill="#C4C4C4" fill-opacity="0.54"/>
<circle cx="382.5" cy="146.5" r="22.5" fill="#C4C4C4" fill-opacity="0.54"/>
<circle cx="622.5" cy="146.5" r="22.5" fill="#C4C4C4" fill-opacity="0.54"/>
<circle cx="382.5" cy="270.5" r="22.5" fill="#C4C4C4" fill-opacity="0.54"/>
<circle cx="622.5" cy="270.5" r="22.5" fill="#C4C4C4" fill-opacity="0.54"/>
<circle cx="382.5" cy="518.5" r="22.5" fill="#C4C4C4" fill-opacity="0.54"/>
<circle cx="622.5" cy="518.5" r="22.5" fill="#C4C4C4" fill-opacity="0.54"/>
<circle cx="382.5" cy="394.5" r="22.5" fill="#C4C4C4" fill-opacity="0.54"/>
<circle cx="622.5" cy="394.5" r="22.5" fill="#C4C4C4" fill-opacity="0.54"/>
<circle cx="382.5" cy="642.5" r="22.5" fill="#C4C4C4" fill-opacity="0.54"/>
<circle cx="622.5" cy="642.5" r="22.5" fill="#C4C4C4" fill-opacity="0.54"/>
<circle cx="502.5" cy="22.5" r="22.5" fill="#C4C4C4" fill-opacity="0.54"/>
<circle cx="742.5" cy="22.5" r="22.5" fill="#C4C4C4" fill-opacity="0.54"/>
<circle cx="502.5" cy="146.5" r="22.5" fill="#C4C4C4" fill-opacity="0.54"/>
<circle cx="742.5" cy="146.5" r="22.5" fill="#C4C4C4" fill-opacity="0.54"/>
<circle cx="502.5" cy="270.5" r="22.5" fill="#C4C4C4" fill-opacity="0.54"/>
<circle cx="742.5" cy="270.5" r="22.5" fill="#C4C4C4" fill-opacity="0.54"/>
<circle cx="502.5" cy="518.5" r="22.5" fill="#C4C4C4" fill-opacity="0.54"/>
<circle cx="742.5" cy="518.5" r="22.5" fill="#C4C4C4" fill-opacity="0.54"/>
<circle cx="502.5" cy="394.5" r="22.5" fill="#C4C4C4" fill-opacity="0.54"/>
<circle cx="742.5" cy="394.5" r="22.5" fill="#C4C4C4" fill-opacity="0.54"/>
<circle cx="502.5" cy="642.5" r="22.5" fill="#C4C4C4" fill-opacity="0.54"/>
<circle cx="742.5" cy="642.5" r="22.5" fill="#C4C4C4" fill-opacity="0.54"/>
</svg>
