<svg width="1026" height="858" viewBox="0 0 1026 858" fill="none" xmlns="http://www.w3.org/2000/svg">
<path d="M849.137 638.273H823.728L788.529 532.675C785.823 524.564 778.233 519.094 769.684 519.094H470.41V258.223C470.41 250.314 486.254 238.359 510.137 238.359C534.019 238.359 549.863 250.314 549.863 258.223C549.863 269.192 558.757 278.086 569.727 278.086C580.696 278.086 589.59 269.192 589.59 258.223C589.59 250.314 605.434 238.359 629.316 238.359C648.269 238.359 662.16 245.889 667.086 252.948C668.667 258.535 669.377 261.872 669.432 262.141C671.445 272.142 680.692 278.994 690.863 277.988C701.025 276.983 708.77 268.435 708.77 258.223C708.77 238.395 684.107 181.259 660.486 147.515C628.17 101.349 569.458 46.8615 470.41 40.3715V19.8633C470.41 8.89345 461.517 0 450.547 0C439.577 0 430.684 8.89345 430.684 19.8633V40.3715C331.639 46.8588 272.598 101.308 239.996 147.442C217.337 179.507 191 237.729 191 258.223C191 268.41 198.708 276.947 208.843 277.983C219.018 279.022 228.262 272.18 230.315 262.242C230.341 262.119 231.07 258.686 232.758 252.841C237.752 245.813 251.598 238.359 270.453 238.359C294.335 238.359 310.18 250.314 310.18 258.223C310.18 269.192 319.073 278.086 330.043 278.086C341.013 278.086 349.906 269.192 349.906 258.223C349.906 250.224 367.144 238.359 390.957 238.359C414.839 238.359 430.684 250.314 430.684 258.223V519.094H342.365L268.385 369.902C263.51 360.072 251.591 356.059 241.765 360.93C231.937 365.804 227.921 377.721 232.794 387.55L308.608 540.443L275.999 638.273H210.863C199.893 638.273 191 647.167 191 658.137C191 669.107 199.893 678 210.863 678H849.137C860.107 678 869 669.107 869 658.137C869 647.167 860.107 638.273 849.137 638.273ZM430.684 638.273H317.876L344.36 558.82H430.684V638.273ZM390.957 198.633C371.163 198.633 352.116 203.912 337.329 213.498C334.838 215.114 332.502 216.834 330.326 218.65C315.871 206.308 294.576 198.633 270.453 198.633C264.935 198.633 259.565 199.034 254.393 199.801C259.424 190.305 265.395 180.34 272.439 170.369C315.071 110.043 374.995 79.4531 450.547 79.4531C525.576 79.4531 584.997 109.644 627.161 169.189C634.494 179.544 640.668 189.954 645.836 199.87C640.521 199.058 634.997 198.633 629.316 198.633C605.348 198.633 584.176 206.206 569.727 218.409C555.277 206.206 534.105 198.633 510.137 198.633C486.168 198.633 464.997 206.206 450.547 218.409C436.097 206.206 414.925 198.633 390.957 198.633ZM470.41 638.273V558.82H755.366L781.851 638.273H470.41ZM789.547 158.906C833.357 158.906 869 123.264 869 79.4531C869 35.6427 833.357 0 789.547 0C745.736 0 710.094 35.6427 710.094 79.4531C710.094 123.264 745.736 158.906 789.547 158.906ZM789.547 39.7266C811.452 39.7266 829.273 57.5479 829.273 79.4531C829.273 101.358 811.452 119.18 789.547 119.18C767.642 119.18 749.82 101.358 749.82 79.4531C749.82 57.5479 767.642 39.7266 789.547 39.7266Z" fill="url(#paint0_linear)"/>
<path d="M62.784 824.448C55.296 824.448 51.552 821.232 51.552 814.8C51.552 812.688 51.84 810.288 52.416 807.6C53.088 804.816 54 801.264 55.152 796.944C56.496 792.432 57.504 788.592 58.176 785.424C58.848 782.256 59.184 779.424 59.184 776.928C59.184 770.4 56.304 767.136 50.544 767.136C48.912 767.136 47.328 767.328 45.792 767.712L34.272 822H13.536L34.416 724.08C27.984 726.768 22.992 730.8 19.44 736.176C15.984 741.552 14.256 748.032 14.256 755.616C14.256 759.168 14.592 761.664 15.264 763.104C15.936 764.448 16.272 765.216 16.272 765.408C11.088 765.408 7.2 764.352 4.608 762.24C2.112 760.032 0.864 756.432 0.864 751.44C0.864 745.296 3.36 739.344 8.352 733.584C13.44 727.728 19.92 723.024 27.792 719.472C35.664 715.824 43.536 714 51.408 714C52.752 714 54.672 714.096 57.168 714.288L47.808 758.352L62.64 738.48C74.448 722.544 80.4 714.624 80.496 714.72H95.616L55.584 760.8L60.624 760.656C67.152 760.656 71.76 762.048 74.448 764.832C77.136 767.52 78.48 771.264 78.48 776.064C78.48 778.848 78.144 781.824 77.472 784.992C76.8 788.064 75.84 791.904 74.592 796.512C73.824 799.488 73.104 802.416 72.432 805.296C71.76 808.176 71.424 810.576 71.424 812.496C71.424 814.704 71.904 816.672 72.864 818.4C73.92 820.128 75.312 821.328 77.04 822C71.184 823.632 66.432 824.448 62.784 824.448ZM117.876 838.416C114.324 838.416 111.204 838.128 108.516 837.552C105.828 836.976 103.476 835.584 101.46 833.376C99.5404 831.168 98.5804 827.76 98.5804 823.152C98.5804 816.72 100.5 808.08 104.34 797.232C108.276 786.384 113.412 775.488 119.748 764.544C114.948 764.832 111.156 765.552 108.372 766.704C105.588 767.856 103.764 769.632 102.9 772.032C103.284 772.032 103.668 772.512 104.052 773.472C104.532 774.432 104.772 775.44 104.772 776.496C104.772 778.224 104.004 779.616 102.468 780.672C100.932 781.632 99.0124 782.112 96.7084 782.112C94.0204 782.112 91.8604 781.392 90.2284 779.952C88.5964 778.512 87.7804 776.448 87.7804 773.76C87.7804 770.496 89.0284 767.52 91.5244 764.832C94.1164 762.144 97.6684 760.032 102.18 758.496C106.692 756.864 111.684 756.048 117.156 756.048C119.172 756.048 121.668 756.192 124.644 756.48C132.516 744 140.82 733.824 149.556 725.952C158.388 717.984 166.788 714 174.756 714C179.364 714 183.156 714.672 186.132 716.016L163.524 822H142.788L153.876 769.728C150.324 768.096 147.06 766.896 144.084 766.128C141.108 765.36 137.94 764.832 134.58 764.544C129.108 776.352 124.596 788.448 121.044 800.832C117.588 813.12 115.86 822.96 115.86 830.352C115.86 834 116.532 836.688 117.876 838.416ZM163.524 724.224C159.396 726.432 155.076 730.56 150.564 736.608C146.148 742.56 141.828 749.808 137.604 758.352C144.516 759.696 150.372 761.376 155.172 763.392L163.524 724.224ZM263.168 858C258.848 858 254.576 856.752 250.352 854.256C246.224 851.856 240.944 848.112 234.512 843.024C229.712 839.184 225.584 836.064 222.128 833.664C218.768 831.36 215.072 829.392 211.04 827.76C207.104 826.128 203.072 825.312 198.944 825.312C197.504 825.312 196.4 825.36 195.632 825.456L217.088 725.664C210.656 728.256 205.664 732.24 202.112 737.616C198.656 742.896 196.928 749.376 196.928 757.056C196.928 760.608 197.264 763.104 197.936 764.544C198.608 765.888 198.944 766.656 198.944 766.848C193.76 766.848 189.872 765.792 187.28 763.68C184.784 761.472 183.536 757.872 183.536 752.88C183.536 746.736 186.032 740.784 191.024 735.024C196.112 729.168 202.592 724.464 210.464 720.912C218.336 717.264 226.208 715.44 234.08 715.44C235.424 715.44 237.344 715.536 239.84 715.728L217.664 819.12C220.352 819.792 223.088 820.752 225.872 822C228.752 823.344 232.208 825.12 236.24 827.328C242.48 830.688 247.808 833.232 252.224 834.96C256.64 836.784 261.248 837.696 266.048 837.696C270.368 837.696 274.4 836.928 278.144 835.392C277.376 842.4 275.648 847.92 272.96 851.952C270.368 855.984 267.104 858 263.168 858ZM268.626 838.416C265.074 838.416 261.954 838.128 259.266 837.552C256.578 836.976 254.226 835.584 252.21 833.376C250.29 831.168 249.33 827.76 249.33 823.152C249.33 816.72 251.25 808.08 255.09 797.232C259.026 786.384 264.162 775.488 270.498 764.544C265.698 764.832 261.906 765.552 259.122 766.704C256.338 767.856 254.514 769.632 253.65 772.032C254.034 772.032 254.418 772.512 254.802 773.472C255.282 774.432 255.522 775.44 255.522 776.496C255.522 778.224 254.754 779.616 253.218 780.672C251.682 781.632 249.762 782.112 247.458 782.112C244.77 782.112 242.61 781.392 240.978 779.952C239.346 778.512 238.53 776.448 238.53 773.76C238.53 770.496 239.778 767.52 242.274 764.832C244.866 762.144 248.418 760.032 252.93 758.496C257.442 756.864 262.434 756.048 267.906 756.048C269.922 756.048 272.418 756.192 275.394 756.48C283.266 744 291.57 733.824 300.306 725.952C309.138 717.984 317.538 714 325.506 714C330.114 714 333.906 714.672 336.882 716.016L314.274 822H293.538L304.626 769.728C301.074 768.096 297.81 766.896 294.834 766.128C291.858 765.36 288.69 764.832 285.33 764.544C279.858 776.352 275.346 788.448 271.794 800.832C268.338 813.12 266.61 822.96 266.61 830.352C266.61 834 267.282 836.688 268.626 838.416ZM314.274 724.224C310.146 726.432 305.826 730.56 301.314 736.608C296.898 742.56 292.578 749.808 288.354 758.352C295.266 759.696 301.122 761.376 305.922 763.392L314.274 724.224ZM368.414 723.36C361.886 725.664 356.894 729.312 353.438 734.304C350.078 739.2 348.398 745.152 348.398 752.16C348.398 755.232 348.734 758.064 349.406 760.656C350.078 763.152 351.038 765.216 352.286 766.848C346.142 766.848 341.582 765.6 338.606 763.104C335.726 760.512 334.286 756.576 334.286 751.296C334.286 744.576 336.254 738.336 340.19 732.576C344.126 726.72 349.454 722.064 356.174 718.608C362.894 715.152 370.19 713.424 378.062 713.424C380.27 713.424 382.19 713.568 383.822 713.856C385.454 714.144 387.326 714.672 389.438 715.44L406.718 792.48L422.846 714.288H436.814L413.342 822H393.47L376.766 750.576L360.35 822H346.67L368.414 723.36ZM462.873 851.808C455.865 851.808 450.201 849.984 445.881 846.336C441.657 842.784 439.545 838.08 439.545 832.224C439.545 828.576 440.409 825.216 442.137 822.144C443.865 819.072 446.217 816.672 449.193 814.944C452.169 813.12 455.433 812.208 458.985 812.208C462.633 812.208 465.561 813.12 467.769 814.944C470.073 816.768 471.225 819.168 471.225 822.144C471.225 824.448 470.697 826.272 469.641 827.616C468.777 826.464 467.577 825.552 466.041 824.88C464.601 824.208 463.065 823.872 461.433 823.872C458.553 823.872 456.201 824.832 454.377 826.752C452.553 828.672 451.641 831.168 451.641 834.24C451.641 837.312 452.505 839.808 454.233 841.728C456.057 843.648 458.313 844.608 461.001 844.608C464.361 844.608 467.241 843.12 469.641 840.144C472.041 837.168 473.865 832.752 475.113 826.896L482.313 795.072H481.737C479.145 798.72 475.977 801.504 472.233 803.424C468.585 805.344 464.553 806.304 460.137 806.304C454.569 806.304 449.673 804.816 445.449 801.84C441.225 798.864 437.961 794.64 435.657 789.168C433.449 783.6 432.345 777.168 432.345 769.872C432.345 759.312 434.649 749.712 439.257 741.072C443.865 732.336 450.201 725.472 458.265 720.48C466.329 715.488 475.209 712.992 484.905 712.992C493.065 712.992 499.497 714.768 504.201 718.32C509.001 721.872 511.401 726.72 511.401 732.864C511.401 736.992 510.393 740.304 508.377 742.8C506.361 745.296 503.721 746.544 500.457 746.544C498.633 746.544 496.905 746.16 495.273 745.392C493.737 744.624 492.441 743.52 491.385 742.08C493.113 740.928 494.553 739.104 495.705 736.608C496.953 734.016 497.577 731.424 497.577 728.832C497.577 725.952 496.713 723.744 494.985 722.208C493.353 720.576 491.001 719.76 487.929 719.76C482.361 719.76 476.985 722.256 471.801 727.248C466.617 732.144 462.441 738.576 459.273 746.544C456.105 754.512 454.521 762.864 454.521 771.6C454.521 778.8 455.673 784.32 457.977 788.16C460.281 791.904 463.593 793.776 467.913 793.776C473.097 793.776 477.657 791.04 481.593 785.568C485.625 780.096 488.841 772.128 491.241 761.664L508.233 761.808L497.721 810.192C494.649 824.496 490.281 835.008 484.617 841.728C479.049 848.448 471.801 851.808 462.873 851.808ZM546.123 851.808C539.115 851.808 533.451 849.984 529.131 846.336C524.907 842.784 522.795 838.08 522.795 832.224C522.795 828.576 523.659 825.216 525.387 822.144C527.115 819.072 529.467 816.672 532.443 814.944C535.419 813.12 538.683 812.208 542.235 812.208C545.883 812.208 548.811 813.12 551.019 814.944C553.323 816.768 554.475 819.168 554.475 822.144C554.475 824.448 553.947 826.272 552.891 827.616C552.027 826.464 550.827 825.552 549.291 824.88C547.851 824.208 546.315 823.872 544.683 823.872C541.803 823.872 539.451 824.832 537.627 826.752C535.803 828.672 534.891 831.168 534.891 834.24C534.891 837.312 535.755 839.808 537.483 841.728C539.307 843.648 541.563 844.608 544.251 844.608C547.611 844.608 550.491 843.12 552.891 840.144C555.291 837.168 557.115 832.752 558.363 826.896L565.563 795.072H564.987C562.395 798.72 559.227 801.504 555.483 803.424C551.835 805.344 547.803 806.304 543.387 806.304C537.819 806.304 532.923 804.816 528.699 801.84C524.475 798.864 521.211 794.64 518.907 789.168C516.699 783.6 515.595 777.168 515.595 769.872C515.595 759.312 517.899 749.712 522.507 741.072C527.115 732.336 533.451 725.472 541.515 720.48C549.579 715.488 558.459 712.992 568.155 712.992C576.315 712.992 582.747 714.768 587.451 718.32C592.251 721.872 594.651 726.72 594.651 732.864C594.651 736.992 593.643 740.304 591.627 742.8C589.611 745.296 586.971 746.544 583.707 746.544C581.883 746.544 580.155 746.16 578.523 745.392C576.987 744.624 575.691 743.52 574.635 742.08C576.363 740.928 577.803 739.104 578.955 736.608C580.203 734.016 580.827 731.424 580.827 728.832C580.827 725.952 579.963 723.744 578.235 722.208C576.603 720.576 574.251 719.76 571.179 719.76C565.611 719.76 560.235 722.256 555.051 727.248C549.867 732.144 545.691 738.576 542.523 746.544C539.355 754.512 537.771 762.864 537.771 771.6C537.771 778.8 538.923 784.32 541.227 788.16C543.531 791.904 546.843 793.776 551.163 793.776C556.347 793.776 560.907 791.04 564.843 785.568C568.875 780.096 572.091 772.128 574.491 761.664L591.483 761.808L580.971 810.192C577.899 824.496 573.531 835.008 567.867 841.728C562.299 848.448 555.051 851.808 546.123 851.808ZM627.501 838.416C623.949 838.416 620.829 838.128 618.141 837.552C615.453 836.976 613.101 835.584 611.085 833.376C609.165 831.168 608.205 827.76 608.205 823.152C608.205 816.72 610.125 808.08 613.965 797.232C617.901 786.384 623.037 775.488 629.373 764.544C624.573 764.832 620.781 765.552 617.997 766.704C615.213 767.856 613.389 769.632 612.525 772.032C612.909 772.032 613.293 772.512 613.677 773.472C614.157 774.432 614.397 775.44 614.397 776.496C614.397 778.224 613.629 779.616 612.093 780.672C610.557 781.632 608.637 782.112 606.333 782.112C603.645 782.112 601.485 781.392 599.853 779.952C598.221 778.512 597.405 776.448 597.405 773.76C597.405 770.496 598.653 767.52 601.149 764.832C603.741 762.144 607.293 760.032 611.805 758.496C616.317 756.864 621.309 756.048 626.781 756.048C628.797 756.048 631.293 756.192 634.269 756.48C642.141 744 650.445 733.824 659.181 725.952C668.013 717.984 676.413 714 684.381 714C688.989 714 692.781 714.672 695.757 716.016L673.149 822H652.413L663.501 769.728C659.949 768.096 656.685 766.896 653.709 766.128C650.733 765.36 647.565 764.832 644.205 764.544C638.733 776.352 634.221 788.448 630.669 800.832C627.213 813.12 625.485 822.96 625.485 830.352C625.485 834 626.157 836.688 627.501 838.416ZM673.149 724.224C669.021 726.432 664.701 730.56 660.189 736.608C655.773 742.56 651.453 749.808 647.229 758.352C654.141 759.696 659.997 761.376 664.797 763.392L673.149 724.224ZM738.521 723.072C731.225 725.472 725.561 729.456 721.529 735.024C717.593 740.496 715.625 747.312 715.625 755.472C715.625 759.12 715.961 761.616 716.633 762.96C717.305 764.304 717.641 765.12 717.641 765.408C707.369 765.408 702.233 761.04 702.233 752.304C702.233 746.352 704.489 740.4 709.001 734.448C713.609 728.4 719.465 723.504 726.569 719.76C733.769 715.92 740.921 714 748.025 714C751.577 714 755.225 714.672 758.969 716.016L755.657 791.904L787.337 716.016H808.073L792.953 822H772.217L781.433 757.344L754.361 822H734.633L737.513 757.056L713.465 822H701.945L738.521 723.072ZM837.033 838.416C833.481 838.416 830.361 838.128 827.673 837.552C824.985 836.976 822.633 835.584 820.617 833.376C818.697 831.168 817.737 827.76 817.737 823.152C817.737 816.72 819.657 808.08 823.497 797.232C827.433 786.384 832.569 775.488 838.905 764.544C834.105 764.832 830.313 765.552 827.529 766.704C824.745 767.856 822.921 769.632 822.057 772.032C822.441 772.032 822.825 772.512 823.209 773.472C823.689 774.432 823.929 775.44 823.929 776.496C823.929 778.224 823.161 779.616 821.625 780.672C820.089 781.632 818.169 782.112 815.865 782.112C813.177 782.112 811.017 781.392 809.385 779.952C807.753 778.512 806.937 776.448 806.937 773.76C806.937 770.496 808.185 767.52 810.681 764.832C813.273 762.144 816.825 760.032 821.337 758.496C825.849 756.864 830.841 756.048 836.313 756.048C838.329 756.048 840.825 756.192 843.801 756.48C851.673 744 859.977 733.824 868.713 725.952C877.545 717.984 885.945 714 893.913 714C898.521 714 902.313 714.672 905.289 716.016L882.681 822H861.945L873.033 769.728C869.481 768.096 866.217 766.896 863.241 766.128C860.265 765.36 857.097 764.832 853.737 764.544C848.265 776.352 843.753 788.448 840.201 800.832C836.745 813.12 835.017 822.96 835.017 830.352C835.017 834 835.689 836.688 837.033 838.416ZM882.681 724.224C878.553 726.432 874.233 730.56 869.721 736.608C865.305 742.56 860.985 749.808 856.761 758.352C863.673 759.696 869.529 761.376 874.329 763.392L882.681 724.224ZM936.82 723.36C930.292 725.664 925.3 729.312 921.844 734.304C918.484 739.2 916.804 745.152 916.804 752.16C916.804 755.232 917.14 758.064 917.812 760.656C918.484 763.152 919.444 765.216 920.692 766.848C914.548 766.848 909.988 765.6 907.012 763.104C904.132 760.512 902.692 756.576 902.692 751.296C902.692 744.576 904.66 738.336 908.596 732.576C912.532 726.72 917.86 722.064 924.58 718.608C931.3 715.152 938.596 713.424 946.468 713.424C948.676 713.424 950.596 713.568 952.228 713.856C953.86 714.144 955.732 714.672 957.844 715.44L975.124 792.48L991.252 714.288H1005.22L981.748 822H961.876L945.172 750.576L928.756 822H915.076L936.82 723.36Z" fill="url(#paint1_linear)"/>
<defs>
<linearGradient id="paint0_linear" x1="530" y1="678" x2="530" y2="0" gradientUnits="userSpaceOnUse">
<stop stop-color="#FD5900"/>
<stop offset="1" stop-color="#FFDE00"/>
</linearGradient>
<linearGradient id="paint1_linear" x1="513" y1="678" x2="513" y2="853" gradientUnits="userSpaceOnUse">
<stop stop-color="#FD5900"/>
<stop offset="1" stop-color="#FFDE00"/>
</linearGradient>
</defs>
</svg>
