<svg width="1920" height="1080" viewBox="0 0 1920 1080" fill="none" xmlns="http://www.w3.org/2000/svg">
<path fill-rule="evenodd" clip-rule="evenodd" d="M1920 0H0V1080H1920V0ZM408.785 533.05L443.005 578H473.31L432.42 526.09L471.86 476.21H442.715L408.785 520.87V476.21H383.99V578H408.785V533.05ZM510.469 560.02H548.458L554.548 578H580.793L543.963 476.21H515.253L478.423 578H504.378L510.469 560.02ZM529.463 503.615L542.079 540.88H516.994L529.463 503.615ZM649.278 558.86H616.798V476.21H592.003V578H649.278V558.86ZM686.479 560.02H724.469L730.559 578H756.804L719.974 476.21H691.264L654.434 578H680.389L686.479 560.02ZM705.474 503.615L718.089 540.88H693.004L705.474 503.615ZM834.278 578H859.073V476.21H834.278V539.285L792.809 476.21H768.014V578H792.809V515.215L834.278 578ZM936.642 500.715C940.122 502.455 942.78 505.017 944.617 508.4H972.021C969.315 497.96 963.757 489.792 955.347 483.895C947.033 477.999 936.787 475.05 924.606 475.05C914.553 475.05 905.612 477.273 897.782 481.72C889.952 486.07 883.813 492.208 879.367 500.135C875.017 507.965 872.842 516.907 872.842 526.96C872.842 537.013 875.017 545.955 879.367 553.785C883.813 561.615 889.952 567.753 897.782 572.2C905.708 576.55 914.698 578.725 924.751 578.725C933.258 578.725 940.895 577.082 947.662 573.795C954.428 570.508 959.987 566.207 964.336 560.89C968.783 555.573 971.925 549.822 973.762 543.635V520.58H919.822V538.85H951.287C949.354 544.65 946.26 549.097 942.007 552.19C937.85 555.283 932.727 556.83 926.637 556.83C917.743 556.83 910.735 554.22 905.612 549C900.585 543.683 898.072 536.336 898.072 526.96C898.072 518.164 900.488 511.155 905.322 505.935C910.155 500.618 916.583 497.96 924.606 497.96C929.247 497.96 933.258 498.878 936.642 500.715ZM1047.09 500.715C1050.57 502.455 1053.23 505.017 1055.07 508.4H1082.47C1079.76 497.96 1074.21 489.792 1065.8 483.895C1057.48 477.999 1047.24 475.05 1035.06 475.05C1025 475.05 1016.06 477.273 1008.23 481.72C1000.4 486.07 994.263 492.208 989.816 500.135C985.466 507.965 983.291 516.907 983.291 526.96C983.291 537.013 985.466 545.955 989.816 553.785C994.263 561.615 1000.4 567.753 1008.23 572.2C1016.16 576.55 1025.15 578.725 1035.2 578.725C1043.71 578.725 1051.34 577.082 1058.11 573.795C1064.88 570.508 1070.44 566.207 1074.79 560.89C1079.23 555.573 1082.37 549.822 1084.21 543.635V520.58H1030.27V538.85H1061.74C1059.8 544.65 1056.71 549.097 1052.46 552.19C1048.3 555.283 1043.18 556.83 1037.09 556.83C1028.19 556.83 1021.18 554.22 1016.06 549C1011.03 543.683 1008.52 536.336 1008.52 526.96C1008.52 518.164 1010.94 511.155 1015.77 505.935C1020.6 500.618 1027.03 497.96 1035.06 497.96C1039.7 497.96 1043.71 498.878 1047.09 500.715ZM1123.32 560.02H1161.31L1167.4 578H1193.65L1156.81 476.21H1128.1L1091.27 578H1117.23L1123.32 560.02ZM1142.31 503.615L1154.93 540.88H1129.85L1142.31 503.615ZM1320.13 578V476.21H1290.98L1262.71 546.68L1234.14 476.21H1204.85V578H1229.65V516.81L1252.56 578H1272.57L1295.33 516.955V578H1320.13ZM1363.33 560.02H1401.32L1407.41 578H1433.66L1396.83 476.21H1368.12L1331.29 578H1357.24L1363.33 560.02ZM1382.33 503.615L1394.94 540.88H1369.86L1382.33 503.615ZM1511.13 578H1535.93V476.21H1511.13V539.285L1469.66 476.21H1444.87V578H1469.66V515.215L1511.13 578Z" fill="#222222"/>
</svg>
