<svg width="758" height="130" viewBox="0 0 758 130" fill="none" xmlns="http://www.w3.org/2000/svg">
<path d="M754.06 47.241L710.583 43.2087L693.313 3.10601C692.104 0.297996 688.123 0.297996 686.914 3.10601L669.644 43.2089L626.167 47.241C623.123 47.5233 621.892 51.3097 624.189 53.3273L656.993 82.1447L647.393 124.74C646.72 127.722 649.941 130.062 652.57 128.501L690.114 106.209L727.657 128.501C730.286 130.062 733.507 127.722 732.835 124.74L723.235 82.1447L756.038 53.3273C758.335 51.3097 757.104 47.5233 754.06 47.241Z" fill="#5F95FF"/>
<path d="M693.313 3.10602C692.104 0.297994 688.123 0.297994 686.914 3.10602L669.644 43.209L626.167 47.2411C623.123 47.5234 621.892 51.3098 624.189 53.3274L656.993 82.1449L647.393 124.74C646.721 127.722 649.941 130.062 652.57 128.502L660.95 123.526C662.109 75.7859 684.291 42.1669 701.853 22.9349L693.313 3.10602Z" fill="#3C7EFF"/>
<path fill-rule="evenodd" clip-rule="evenodd" d="M690.114 99.8264L690.114 99.8264L721.813 118.649C724.033 119.967 726.752 117.991 726.185 115.473L718.079 79.5083L745.776 55.1766C747.715 53.4731 746.677 50.276 744.106 50.0377L707.397 46.633L692.815 12.7727C692.305 11.5873 691.209 10.9945 690.114 10.9945V99.8264Z" fill="white"/>
<path d="M445.815 47.5073L402.088 43.4517L384.718 3.11814C383.502 0.293953 379.498 0.293953 378.282 3.11814L360.912 43.452L317.185 47.5073C314.123 47.7912 312.886 51.5994 315.196 53.6287L348.188 82.612L338.533 125.452C337.857 128.452 341.097 130.805 343.74 129.235L381.5 106.814L419.26 129.235C421.903 130.805 425.143 128.452 424.467 125.452L414.812 82.612L447.804 53.6287C450.114 51.5994 448.877 47.7912 445.815 47.5073Z" fill="#5F95FF"/>
<path d="M384.718 3.11814C383.502 0.293952 379.498 0.293952 378.282 3.11814L360.912 43.4521L317.185 47.5073C314.123 47.7913 312.886 51.5995 315.196 53.6288L348.188 82.6121L338.533 125.453C337.857 128.452 341.097 130.806 343.74 129.236L352.168 124.231C353.335 76.2165 375.644 42.404 393.307 23.0612L384.718 3.11814Z" fill="#3C7EFF"/>
<path d="M288.815 46.5073L245.088 42.4517L227.718 2.11814C226.502 -0.706047 222.498 -0.706047 221.282 2.11814L203.912 42.452L160.185 46.5073C157.123 46.7912 155.886 50.5994 158.196 52.6287L191.188 81.612L181.533 124.452C180.857 127.452 184.097 129.805 186.74 128.235L224.5 105.814L262.26 128.235C264.903 129.805 268.143 127.452 267.467 124.452L257.812 81.612L290.804 52.6287C293.114 50.5994 291.877 46.7912 288.815 46.5073Z" fill="#5F95FF"/>
<path d="M227.718 2.11814C226.502 -0.706048 222.498 -0.706048 221.282 2.11814L203.912 42.4521L160.185 46.5073C157.123 46.7913 155.886 50.5995 158.196 52.6288L191.188 81.6121L181.533 124.453C180.857 127.452 184.097 129.806 186.74 128.236L195.168 123.231C196.335 75.2165 218.644 41.404 236.307 22.0612L227.718 2.11814Z" fill="#3C7EFF"/>
<path d="M131.815 46.5073L88.0877 42.4517L70.7181 2.11814C69.5021 -0.706047 65.4977 -0.706047 64.2816 2.11814L46.9123 42.452L3.18523 46.5073C0.123473 46.7912 -1.11394 50.5994 1.19609 52.6287L34.1883 81.612L24.5331 124.452C23.8571 127.452 27.0966 129.805 29.7404 128.235L67.5 105.814L105.26 128.235C107.903 129.805 111.143 127.452 110.467 124.452L100.812 81.612L133.804 52.6287C136.114 50.5994 134.877 46.7912 131.815 46.5073Z" fill="#5F95FF"/>
<path d="M70.7182 2.11814C69.5022 -0.706048 65.4978 -0.706048 64.2818 2.11814L46.9124 42.4521L3.18523 46.5073C0.123473 46.7913 -1.11394 50.5995 1.19609 52.6288L34.1883 81.6121L24.5332 124.453C23.8571 127.452 27.0966 129.806 29.7404 128.236L38.1682 123.231C39.3347 75.2165 61.644 41.404 79.3068 22.0612L70.7182 2.11814Z" fill="#3C7EFF"/>
<path d="M602.815 46.5073L559.088 42.4517L541.718 2.11814C540.502 -0.706047 536.498 -0.706047 535.282 2.11814L517.912 42.452L474.185 46.5073C471.123 46.7912 469.886 50.5994 472.196 52.6287L505.188 81.612L495.533 124.452C494.857 127.452 498.097 129.805 500.74 128.235L538.5 105.814L576.26 128.235C578.903 129.805 582.143 127.452 581.467 124.452L571.812 81.612L604.804 52.6287C607.114 50.5994 605.877 46.7912 602.815 46.5073Z" fill="#5F95FF"/>
<path d="M541.718 2.11814C540.502 -0.706048 536.498 -0.706048 535.282 2.11814L517.912 42.4521L474.185 46.5073C471.123 46.7913 469.886 50.5995 472.196 52.6288L505.188 81.6121L495.533 124.453C494.857 127.452 498.097 129.806 500.74 128.236L509.168 123.231C510.335 75.2165 532.644 41.404 550.307 22.0612L541.718 2.11814Z" fill="#3C7EFF"/>
</svg>
